<?xml version="1.0" encoding="utf-8"?>
<!-- Generator: Adobe Illustrator 26.0.1, SVG Export Plug-In . SVG Version: 6.00 Build 0)  -->
<svg version="1.1" xmlns="http://www.w3.org/2000/svg" xmlns:xlink="http://www.w3.org/1999/xlink" x="0px" y="0px"
	 viewBox="0 0 146.81 141.04" style="enable-background:new 0 0 146.81 141.04;" xml:space="preserve">
<style type="text/css">
	.st0{display:none;}
	.st1{display:inline;fill:url(#SVGID_1_);}
	.st2{display:inline;}
	.st3{fill:#31AFCC;}
	.st4{fill:url(#SVGID_00000070090209201747970610000014462961857370477236_);}
	.st5{fill:#87CFE3;}
	.st6{fill:url(#SVGID_00000129897477752265378760000001043912929368577427_);}
	.st7{fill:url(#SVGID_00000041257778884810147990000009214896343681119129_);}
	.st8{fill:url(#SVGID_00000153704225953358037200000007283888270283051143_);}
	.st9{fill:url(#SVGID_00000180360420152804404160000012553095029246036104_);}
	.st10{display:inline;fill:#F6F6F6;}
	.st11{fill:#201211;}
	
		.st12{clip-path:url(#SVGID_00000068640020320003790560000010154167474335037080_);fill:#FFFFFF;stroke:#250E12;stroke-miterlimit:10;}
	.st13{display:inline;fill:#250E12;}
	.st14{fill:#250E12;}
	.st15{fill:#FFFFFF;}
	.st16{display:inline;fill:url(#SVGID_00000004515292910789983540000003174399507366828182_);}
	.st17{fill:#AF2D4C;}
	.st18{fill:#FFFFFF;stroke:#250E12;stroke-miterlimit:10;}
	.st19{display:inline;fill:#FFFFFF;stroke:#250E12;stroke-width:2;stroke-miterlimit:10;}
	.st20{display:inline;fill:#250E12;stroke:#250E12;stroke-width:0.75;stroke-miterlimit:10;}
	.st21{display:inline;fill:#FBD627;}
	.st22{display:inline;fill:#F7C21F;}
	.st23{display:inline;fill:url(#SVGID_00000116200809068559897750000013513123862119313059_);}
	.st24{display:inline;fill:#65B4C6;}
	.st25{fill:url(#SVGID_00000164487002422484957630000017204985727147562137_);}
	.st26{fill:#65B4C6;}
	.st27{fill:url(#SVGID_00000145754064866906359090000017951675889898766780_);}
	.st28{display:inline;fill:#974694;}
	.st29{display:inline;fill:#B14693;}
	.st30{display:inline;fill:#BE539A;}
	.st31{display:none;fill:url(#SVGID_00000147198982861828269620000013667998938253698483_);}
</style>
<g id="Cube" class="st0">
	
		<radialGradient id="SVGID_1_" cx="72.0064" cy="65.5445" r="69.3745" gradientTransform="matrix(0.9533 0 0 1.0888 5.2698 -0.238)" gradientUnits="userSpaceOnUse">
		<stop  offset="2.237672e-07" style="stop-color:#50C1E3"/>
		<stop  offset="0.61" style="stop-color:#4DBFE1"/>
		<stop  offset="0.8295" style="stop-color:#44BADA"/>
		<stop  offset="0.9856" style="stop-color:#33B0CE"/>
		<stop  offset="1" style="stop-color:#31AFCC"/>
	</radialGradient>
	<path class="st1" d="M133.72,139.57H14.11c-6.6,0-12-5.4-12-12V14.68c0-6.6,5.4-12,12-12h119.62c6.6,0,12,5.4,12,12v112.89
		C145.72,134.17,140.32,139.57,133.72,139.57z"/>
	<g class="st2">
		<g>
			<path class="st3" d="M73.11,117.52c-1.19,0.04-2.38,0.07-3.57,0.11c-4.37,2.14-6.73,2.96-7.07,2.46
				c-0.37-0.54,1.66-2.66,6.11-6.35l6.32-0.2c1.59,1.1,7.07,4.98,6.52,5.96C80.88,120.44,75.02,118.25,73.11,117.52z"/>
			<path class="st3" d="M82.24,43.95c0.34,1.68,0.68,3.37,1.03,5.05c-0.17,0.42-0.43,0.94-0.83,1.48c-0.59,0.8-1.25,1.32-1.73,1.65
				c-1.79,2.31-3.58,4.63-5.37,6.94c-0.89-14.55-0.34-22.02,1.64-22.4C78.19,36.44,79.95,38.86,82.24,43.95z"/>
			<path class="st3" d="M53.39,43.27c-0.34,1.68-0.68,3.37-1.03,5.05c0.17,0.42,0.43,0.94,0.83,1.48c0.59,0.8,1.25,1.32,1.73,1.65
				c1.79,2.31,3.58,4.63,5.37,6.94c0.89-14.55,0.34-22.02-1.64-22.4C57.44,35.76,55.68,38.19,53.39,43.27z"/>
		</g>
	</g>
	<g class="st2">
		
			<linearGradient id="SVGID_00000096045384557685935480000005713265251670219152_" gradientUnits="userSpaceOnUse" x1="101.0438" y1="19.0079" x2="118.1138" y2="19.0079">
			<stop  offset="2.237672e-07" style="stop-color:#C4E6F6;stop-opacity:0.5"/>
			<stop  offset="0.0875" style="stop-color:#BCDDEC;stop-opacity:0.4562"/>
			<stop  offset="0.2362" style="stop-color:#A7C4D1;stop-opacity:0.3819"/>
			<stop  offset="0.4281" style="stop-color:#849BA5;stop-opacity:0.286"/>
			<stop  offset="0.6555" style="stop-color:#546269;stop-opacity:0.1722"/>
			<stop  offset="0.9103" style="stop-color:#171B1D;stop-opacity:0.0449"/>
			<stop  offset="1" style="stop-color:#000000;stop-opacity:0"/>
		</linearGradient>
		<path style="fill:url(#SVGID_00000096045384557685935480000005713265251670219152_);" d="M101.04,23.8
			c5.7-3.18,11.39-6.37,17.07-9.58"/>
		<g>
			<path class="st5" d="M102.31,25.96c5.7-3.18,11.39-6.37,17.07-9.58c1.17-0.66,1.57-2.27,0.9-3.42c-0.69-1.18-2.24-1.56-3.42-0.9
				c-5.68,3.21-11.37,6.41-17.07,9.58c-1.18,0.66-1.57,2.27-0.9,3.42C99.58,26.25,101.12,26.62,102.31,25.96L102.31,25.96z"/>
		</g>
	</g>
	<g class="st2">
		
			<linearGradient id="SVGID_00000049218202776287920990000004672610675784347546_" gradientUnits="userSpaceOnUse" x1="108.7281" y1="22.3369" x2="141.5106" y2="22.3369">
			<stop  offset="2.237672e-07" style="stop-color:#FFFFFF;stop-opacity:0.5"/>
			<stop  offset="0.0852" style="stop-color:#F5F5F5;stop-opacity:0.4574"/>
			<stop  offset="0.2299" style="stop-color:#DADADA;stop-opacity:0.385"/>
			<stop  offset="0.4166" style="stop-color:#AEAEAE;stop-opacity:0.2917"/>
			<stop  offset="0.6379" style="stop-color:#727272;stop-opacity:0.181"/>
			<stop  offset="0.8857" style="stop-color:#262626;stop-opacity:0.0571"/>
			<stop  offset="1" style="stop-color:#000000;stop-opacity:0"/>
		</linearGradient>
		<path style="fill:url(#SVGID_00000049218202776287920990000004672610675784347546_);" d="M108.73,31.4
			c10.95-6.01,21.88-12.05,32.78-18.12"/>
		<g>
			<path class="st5" d="M109.99,33.56c10.95-6.01,21.87-12.05,32.78-18.12c2.81-1.57,0.29-5.89-2.52-4.32
				c-10.91,6.08-21.84,12.12-32.78,18.12C104.64,30.79,107.16,35.11,109.99,33.56L109.99,33.56z"/>
		</g>
	</g>
	<g class="st2">
		
			<linearGradient id="SVGID_00000107584254977445639510000010677142540045977262_" gradientUnits="userSpaceOnUse" x1="118.0472" y1="33.0763" x2="135.1173" y2="33.0763">
			<stop  offset="2.237672e-07" style="stop-color:#FFFFFF;stop-opacity:0.5"/>
			<stop  offset="0.0852" style="stop-color:#F5F5F5;stop-opacity:0.4574"/>
			<stop  offset="0.2299" style="stop-color:#DADADA;stop-opacity:0.385"/>
			<stop  offset="0.4166" style="stop-color:#AEAEAE;stop-opacity:0.2917"/>
			<stop  offset="0.6379" style="stop-color:#727272;stop-opacity:0.181"/>
			<stop  offset="0.8857" style="stop-color:#262626;stop-opacity:0.0571"/>
			<stop  offset="1" style="stop-color:#000000;stop-opacity:0"/>
		</linearGradient>
		<path style="fill:url(#SVGID_00000107584254977445639510000010677142540045977262_);" d="M118.05,37.87
			c5.7-3.18,11.39-6.37,17.07-9.58"/>
		<g>
			<path class="st5" d="M119.31,40.03c5.7-3.18,11.39-6.37,17.07-9.58c1.17-0.66,1.57-2.27,0.9-3.42c-0.69-1.18-2.24-1.56-3.42-0.9
				c-5.68,3.21-11.37,6.41-17.07,9.58c-1.18,0.66-1.57,2.27-0.9,3.42C116.58,40.32,118.13,40.69,119.31,40.03L119.31,40.03z"/>
		</g>
	</g>
	<g class="st2">
		
			<linearGradient id="SVGID_00000036237111910867320650000014746287056657808284_" gradientUnits="userSpaceOnUse" x1="126.4728" y1="41.9984" x2="133.7234" y2="41.9984">
			<stop  offset="0.529" style="stop-color:#2581C4"/>
			<stop  offset="1" style="stop-color:#2581C4"/>
		</linearGradient>
		<path style="fill:url(#SVGID_00000036237111910867320650000014746287056657808284_);" d="M126.47,43.97
			c2.42-1.3,4.84-2.62,7.25-3.94"/>
		<g>
			<path class="st5" d="M127.73,46.12c2.42-1.3,4.84-2.62,7.25-3.94c1.15-0.63,1.61-2.31,0.9-3.42c-0.75-1.16-2.19-1.57-3.42-0.9
				c-2.41,1.32-4.83,2.63-7.25,3.94c-1.15,0.62-1.61,2.31-0.9,3.42C125.07,46.4,126.5,46.79,127.73,46.12L127.73,46.12z"/>
		</g>
	</g>
	<g class="st2">
		
			<linearGradient id="SVGID_00000116195582988750906710000003643491307720396455_" gradientUnits="userSpaceOnUse" x1="94.0978" y1="13.7836" x2="101.3485" y2="13.7836">
			<stop  offset="2.237672e-07" style="stop-color:#FFFFFF;stop-opacity:0.5"/>
			<stop  offset="0.0852" style="stop-color:#F5F5F5;stop-opacity:0.4574"/>
			<stop  offset="0.2299" style="stop-color:#DADADA;stop-opacity:0.385"/>
			<stop  offset="0.4166" style="stop-color:#AEAEAE;stop-opacity:0.2917"/>
			<stop  offset="0.6379" style="stop-color:#727272;stop-opacity:0.181"/>
			<stop  offset="0.8857" style="stop-color:#262626;stop-opacity:0.0571"/>
			<stop  offset="1" style="stop-color:#000000;stop-opacity:0"/>
		</linearGradient>
		<path style="fill:url(#SVGID_00000116195582988750906710000003643491307720396455_);" d="M94.1,15.75
			c2.42-1.3,4.84-2.62,7.25-3.94"/>
		<g>
			<path class="st5" d="M95.36,17.91c2.42-1.3,4.84-2.62,7.25-3.94c1.15-0.63,1.61-2.31,0.9-3.42c-0.75-1.16-2.19-1.57-3.42-0.9
				c-2.41,1.32-4.83,2.63-7.25,3.94c-1.15,0.62-1.61,2.31-0.9,3.42C92.69,18.18,94.13,18.57,95.36,17.91L95.36,17.91z"/>
		</g>
	</g>
	<path class="st10" d="M49.21,84.46c-6.51,0.41-13.02,0.83-19.53,1.24c-1.7-0.25-5.04-0.98-8.38-3.4c-3.96-2.87-5.66-6.48-6.3-8.05
		c0.09-2.16,0.17-4.31,0.26-6.47c1.28-1.99,3.52-4.91,7.15-7.47c5.52-3.89,11.11-4.74,13.79-4.98c4.81-3.07,9.62-6.14,14.43-9.21
		c1.25,0.33,2.9,0.96,4.47,2.24c4.69,3.83,4.4,10.06,4.34,10.95c0.09,5.06,0.17,10.12,0.26,15.18c-0.35,1.25-1.06,3.12-2.55,4.98
		C54.33,82.95,50.62,84.1,49.21,84.46z"/>
	<path class="st10" d="M85.55,84.21c6.51,0.41,13.02,0.83,19.53,1.24c1.29-0.1,4.98-0.57,8.38-3.4c3.65-3.04,4.62-6.85,4.88-8.05
		c-0.1-2.15-0.19-4.29-0.29-6.44c-0.83-1.84-2.5-4.85-5.7-7.5c-5.5-4.56-11.75-4.94-13.79-4.98c-4.81-3.07-9.62-6.14-14.43-9.21
		c-1.25,0.33-2.9,0.96-4.47,2.24c-4.69,3.83-4.4,10.06-4.34,10.95c-0.09,5.06-0.17,10.12-0.26,15.18c0.35,1.25,1.06,3.12,2.55,4.98
		C80.43,82.7,84.14,83.85,85.55,84.21z"/>
	<g class="st2">
		<g>
			<path class="st11" d="M56.38,35.09c-6.05,8.15-14.17,14.67-23.32,19.02c-4.34,2.06-9.12,3.14-13.36,5.39
				c-4.36,2.32-7.21,6.4-7.01,11.46c0.19,4.99,2.72,10.32,6.24,13.85c3.72,3.72,9,4.55,14.05,4.25c5.34-0.31,11.03-1.07,16.08-2.91
				c4.64-1.69,9.06-4.61,11.5-9.03c2.9-5.25,1.76-11.6,0.78-17.24c-0.96-5.49-2.81-10.95-6.86-14.94c-1.72-1.7-4.37,0.95-2.65,2.65
				c3.16,3.12,4.68,7.28,5.57,11.56c0.47,2.23,0.77,4.49,1.02,6.75c0.27,2.47,0.47,5.02-0.28,7.43c-1.26,4.06-4.92,6.96-8.67,8.63
				c-4.54,2.03-9.75,2.71-14.66,3.2c-4.24,0.42-9.22,0.53-12.64-2.45c-3.21-2.81-5.64-7.66-5.74-11.94
				c-0.11-4.52,2.99-7.2,6.87-8.85c4.16-1.77,8.49-3,12.56-5.02c9.38-4.64,17.52-11.53,23.75-19.92c0.61-0.82,0.13-2.09-0.67-2.57
				C58,33.85,56.98,34.28,56.38,35.09L56.38,35.09z"/>
		</g>
	</g>
	<g class="st2">
		<g>
			<path class="st11" d="M76,37.03c5.06,7.35,11.57,13.64,19.21,18.29c3.72,2.27,7.67,3.98,11.73,5.52c3.52,1.33,7.54,3.03,8.7,6.98
				c1.25,4.23-0.65,8.96-2.93,12.5c-1.17,1.82-2.7,3.39-4.74,4.22c-1.95,0.79-4.09,0.93-6.17,0.87c-4.57-0.14-9.42-0.92-13.75-2.39
				c-3.93-1.33-7.57-3.78-9.57-7.5c-2.37-4.42-1.22-10.16-0.44-14.87c0.77-4.66,2.07-9.47,5.39-13c1.65-1.76-0.99-4.41-2.65-2.65
				c-3.3,3.51-5.04,8.04-5.99,12.7c-0.5,2.43-0.81,4.89-1.08,7.35c-0.3,2.73-0.51,5.46,0.01,8.18c0.87,4.54,4.03,8.35,7.84,10.82
				c4.51,2.94,9.97,3.9,15.21,4.62c4.68,0.64,9.74,1.02,14.04-1.35c4.29-2.37,7.04-7.48,8.29-12.08c1.3-4.78,0.74-10.1-3.05-13.61
				c-3.33-3.08-7.84-4.14-11.9-5.89c-10.04-4.34-18.71-11.6-24.91-20.6C77.88,33.16,74.63,35.04,76,37.03L76,37.03z"/>
		</g>
	</g>
	<g class="st2">
		<defs>
			<path id="SVGID_00000096756301923966900880000009175307890108970120_" d="M58.02,115.25c-6.89,4.11-7.21,6.42-13.91,8.77
				c-1.41,0.49-16.08,6.03-23.54-0.95c-1.04-0.97-2.75-2.94-3.62-6.61c-0.15-1.15-0.26-3.17,0.48-5.51
				c0.16-0.52,0.79-2.38,2.39-4.39c1.62-2.02,3.38-3.12,4.88-4.01c6.81-4.07,9.96-5.41,9.96-5.41c10.4-4.44,17.11-7.32,27.06-8.46
				c1.36-0.16,4.66-0.5,8.94-0.5c7.73,0,13.7,1.11,21.06,2.52c3.12,0.6,6.3,1.21,10.53,2.33c8.42,2.23,12.75,3.43,16.96,7.04
				c3.61,3.1,5.18,6.28,5.54,7.05c1.29,2.74,1.69,5.21,1.82,6.81c-0.08,1.46-0.46,4.38-2.59,6.91c0,0-2.37,2.82-6.86,3.92
				c-12.45,3.06-28.8-16.29-47.49-13.94C66.64,111.22,64.91,111.15,58.02,115.25z"/>
		</defs>
		<use xlink:href="#SVGID_00000096756301923966900880000009175307890108970120_"  style="overflow:visible;fill:#250E12;"/>
		<clipPath id="SVGID_00000179609944061148882560000003240044115728933822_">
			<use xlink:href="#SVGID_00000096756301923966900880000009175307890108970120_"  style="overflow:visible;"/>
		</clipPath>
		
			<path style="clip-path:url(#SVGID_00000179609944061148882560000003240044115728933822_);fill:#FFFFFF;stroke:#250E12;stroke-miterlimit:10;" d="
			M94.98,125.2c-18,0.77-36,1.55-54,2.32c-1.32,0.81-1.86,0.85-2.11,0.73c-1.51-0.76,3.46-9.87,9.38-17.57
			c3.31-4.31,4.9-5.54,4.79-8.13c-0.15-3.38-3.06-5.93-6.89-9.29c-2.27-1.99-5.69-4.6-10.53-7.12c21.57,0.05,43.15,0.1,64.72,0.15
			c-5.09,2.44-8.56,5-10.72,6.83c-3.65,3.08-6.32,5.32-6.32,8.28c0,1.99,1.21,3.14,5.36,7.37c9.95,10.11,11.99,12.63,10.91,14.42
			C99.15,123.87,98.07,124.75,94.98,125.2z"/>
		
			<use xlink:href="#SVGID_00000096756301923966900880000009175307890108970120_"  style="overflow:visible;fill:none;stroke:#250E12;stroke-miterlimit:10;"/>
	</g>
	<path class="st13" d="M69.99,159.96"/>
	<path class="st13" d="M23.74,149.62"/>
	<path class="st13" d="M52.32,67.38L52.32,67.38c-3.08,0-5.6-2.52-5.6-5.6V55.9c0-3.08,2.52-5.6,5.6-5.6h0c3.08,0,5.6,2.52,5.6,5.6
		v5.88C57.93,64.86,55.41,67.38,52.32,67.38z"/>
	<path class="st13" d="M83.3,68.22L83.3,68.22c-3.08,0-5.6-2.52-5.6-5.6v-5.88c0-3.08,2.52-5.6,5.6-5.6h0c3.08,0,5.6,2.52,5.6,5.6
		v5.88C88.9,65.7,86.38,68.22,83.3,68.22z"/>
	<rect x="51.28" y="100.08" class="st13" width="33.72" height="2.89"/>
	<g class="st2">
		<g>
			<path class="st14" d="M86.41,28.45c0.29,3.08,0.78,6.27,2.43,8.95c1.45,2.34,3.73,4.27,6.47,4.86c0.96,0.2,2.07-0.28,2.31-1.31
				c0.21-0.94-0.28-2.09-1.31-2.31c-0.26-0.06-0.52-0.12-0.78-0.2c-0.14-0.05-0.28-0.09-0.42-0.15c0.18,0.07,0.08,0.03-0.04-0.03
				c-0.24-0.12-0.47-0.25-0.7-0.39c-0.13-0.08-0.25-0.16-0.37-0.24c-0.1-0.06-0.2-0.15-0.05-0.03c-0.42-0.33-0.81-0.71-1.16-1.11
				c-0.1-0.11-0.19-0.23-0.29-0.34c-0.2-0.25,0.22,0.34-0.08-0.12c-0.15-0.22-0.3-0.44-0.44-0.67c-0.62-1.04-0.95-2-1.25-3.23
				c-0.33-1.35-0.45-2.36-0.57-3.67c-0.09-0.97-0.8-1.92-1.88-1.88C87.35,26.62,86.31,27.41,86.41,28.45L86.41,28.45z"/>
		</g>
	</g>
	<g class="st2">
		<g>
			<path class="st14" d="M47.3,28.57c0.05,0.15,0.1,0.3,0.13,0.46c0.01,0.06,0.09,0.47,0.05,0.15c0.04,0.28,0.04,0.57,0.03,0.85
				c-0.01,0.16-0.02,0.32-0.03,0.48c0.02-0.21,0.01-0.03-0.01,0.07c-0.05,0.29-0.12,0.57-0.19,0.85c-0.16,0.6-0.37,1.18-0.6,1.75
				c-0.02,0.06-0.05,0.12-0.07,0.18c0.05-0.12,0.05-0.12,0,0c-0.05,0.12-0.11,0.24-0.16,0.35c-0.14,0.29-0.3,0.58-0.47,0.85
				c-0.02,0.03-0.23,0.32-0.13,0.19c0.12-0.15-0.16,0.17-0.18,0.2c-0.17,0.18-0.36,0.34-0.54,0.5c-0.15,0.14,0.21-0.13-0.08,0.05
				c-0.09,0.06-0.18,0.12-0.27,0.18c-0.23,0.15-0.48,0.29-0.72,0.41c-0.22,0.12-0.45,0.22-0.68,0.32c-0.19,0.09,0.23-0.08-0.1,0.04
				c-0.11,0.04-0.21,0.08-0.32,0.12c-0.53,0.2-1.07,0.37-1.61,0.55c-0.93,0.3-1.63,1.31-1.31,2.31c0.3,0.93,1.31,1.63,2.31,1.31
				c2.64-0.85,5.29-1.88,6.87-4.3c0.8-1.22,1.35-2.72,1.71-4.12c0.41-1.55,0.51-3.22,0.01-4.76c-0.31-0.93-1.31-1.63-2.31-1.31
				C47.68,26.57,46.97,27.58,47.3,28.57L47.3,28.57z"/>
		</g>
	</g>
	<g class="st2">
		<g>
			<path class="st15" d="M81.1,57.93c3.22,0,3.22-5,0-5C77.88,52.93,77.87,57.93,81.1,57.93L81.1,57.93z"/>
		</g>
	</g>
	<g class="st2">
		<g>
			<path class="st15" d="M54.77,57.56c3.22,0,3.22-5,0-5C51.55,52.56,51.54,57.56,54.77,57.56L54.77,57.56z"/>
		</g>
	</g>
</g>
<g id="Ball" class="st0">
	
		<radialGradient id="SVGID_00000009549379997058109720000007710116753452320671_" cx="250.2766" cy="73.8191" r="74.1069" gradientUnits="userSpaceOnUse">
		<stop  offset="2.237672e-07" style="stop-color:#E84059"/>
		<stop  offset="0.5036" style="stop-color:#E63F58"/>
		<stop  offset="0.685" style="stop-color:#DF3C57"/>
		<stop  offset="0.8143" style="stop-color:#D33854"/>
		<stop  offset="0.9181" style="stop-color:#C23350"/>
		<stop  offset="1" style="stop-color:#AF2D4C"/>
	</radialGradient>
	
		<ellipse style="display:inline;fill:url(#SVGID_00000009549379997058109720000007710116753452320671_);" cx="250.28" cy="73.82" rx="74.39" ry="73.82"/>
	<g class="st2">
		<path class="st17" d="M261.52,134.68c-1.25-0.48-3.48-1.15-6.31-1.02c-2.75,0.12-4.86,0.95-6.06,1.52
			c-0.23-0.22-1.1-1.14-1.08-2.44c0.02-1.53,1.27-2.97,3.09-3.41l7.46-0.37c1.76,0.33,3.11,1.56,3.41,3.09
			C262.28,133.3,261.72,134.34,261.52,134.68z"/>
		<path class="st17" d="M258.66,74.75c-5.39-8.66-7.71-11.3-6.89-12.26c0.53-0.62,2.41-0.57,8.89,3.05l6.05,7.88
			c0.31,9.1-0.91,10.25-1.54,10.39C264.05,84.07,262.92,81.58,258.66,74.75z"/>
		<path class="st17" d="M207.65,51.04c-5.2-8.81-7.55-11.42-6.5-12.56c0.68-0.74,2.85-0.92,9.92,2.26l6.05,7.88
			c-0.74,9.9-2.28,11.3-3.03,11.54C212.77,60.57,211.75,57.99,207.65,51.04z"/>
		<path class="st17" d="M239.42,74.43c-5.88,8.37-7.28,11.59-8.76,11.1c-0.95-0.32-2.01-2.22-2.03-9.97l4.68-8.76
			c9.33-3.42,11.24-2.59,11.76-2C245.99,65.84,244.06,67.83,239.42,74.43z"/>
		<path class="st17" d="M288.47,45.38c-3.08,9.78-3.31,13.3-5.17,13.27c-1.2-0.02-3.19-1.53-6.46-8.97l1.57-9.81
			c9.03-6.05,11.53-5.82,12.36-5.42C292.24,35.17,290.9,37.66,288.47,45.38z"/>
		<path class="st17" d="M215.43,112.09c-5.39-8.66-7.71-11.3-6.89-12.26c0.53-0.62,2.41-0.57,8.89,3.05l6.05,7.88
			c0.31,9.1-0.91,10.25-1.54,10.39C220.82,121.4,219.68,118.91,215.43,112.09z"/>
		<path class="st17" d="M285.65,110.87c4.21-9.29,6.15-12.22,5.22-13.05c-0.6-0.54-2.46-0.25-8.42,4.19l-4.97,8.6
			c0.89,9.06,2.25,10.04,2.89,10.1C281.54,120.82,282.33,118.2,285.65,110.87z"/>
	</g>
	<g class="st2">
		<path class="st18" d="M253.09,128.03c-10.5,0.62-29.52-0.52-32.76-8.08c-0.8-1.86-0.47-3.72,0.1-5.22
			c-3.14-5.15-3.03-9.4-0.8-10.39c2.48-1.1,7.39,1.93,7.9,2.24c6.51,0.69,14.49,1.15,23.6,0.85c8.83-0.29,16.57-1.22,22.93-2.29
			c2.53-1.7,7.22-4.57,9.2-3.65c3,1.39-2.05,10.62-2.72,11.84c0.77,1.22,1.48,2.9,0.94,4.73
			C279.47,124.81,262.13,127.5,253.09,128.03z"/>
		<g>
			<g>
				<path class="st14" d="M292.1,93.49c-8.68,8.82-21.48,12.02-33.45,13.05c-12.47,1.07-25.26-0.32-37.27-3.74
					c-5.12-1.46-10.14-3.3-14.96-5.56c-1.45-0.68-2.72,1.48-1.26,2.16c10.78,5.06,22.42,8.17,34.26,9.38
					c12.51,1.27,25.74,0.78,37.7-3.39c6.2-2.16,12.11-5.42,16.74-10.12C294.99,94.11,293.23,92.34,292.1,93.49L292.1,93.49z"/>
			</g>
		</g>
		<g>
			<g>
				<path class="st14" d="M280.36,112.73c-6,1.46-12.05,2.56-18.23,2.87c-0.8,0.04-0.81,1.29,0,1.25
					c6.29-0.32,12.46-1.43,18.56-2.92C281.48,113.75,281.15,112.54,280.36,112.73L280.36,112.73z"/>
			</g>
		</g>
		<g>
			<g>
				<path class="st14" d="M260.17,113.06c0.36,2.03,0.68,4.07,0.95,6.12c0.05,0.33,0.47,0.52,0.77,0.44
					c0.36-0.1,0.48-0.43,0.44-0.77c-0.28-2.05-0.59-4.09-0.95-6.12c-0.06-0.33-0.47-0.52-0.77-0.44
					C260.25,112.39,260.11,112.73,260.17,113.06L260.17,113.06z"/>
			</g>
		</g>
	</g>
	<path class="st19" d="M292.86,64.62c2.57,13.93-3.19,26.12-12.86,27.25c-11.72,1.36-21.03-18.34-22.16-23.18
		c-0.17-0.72-0.56-2.4,0.08-4.17c0.89-2.45,2.99-2.94,5.29-4.56c1.59-1.12,1.71-1.68,8.86-13.11c2.69-4.31,2.96-4.67,3.66-4.84
		C280.57,40.86,290.62,52.45,292.86,64.62z"/>
	<path class="st19" d="M239.23,68.64c-1.65,14.88-10.98,26.05-20.84,24.96c-9.05-1-14.82-17.33-14.87-28.92
		c-0.06-11.59,5.57-23.05,10-22.94c2.94,0.07,6.95,5.31,7.53,6.06c0.88,1.15,1.07,1.69,2.6,3.7c1.55,2.04,2.94,3.61,4.06,4.86
		c4.63,5.19,6.95,7.79,9.38,8.15c0.5,0.08,1.83,0.2,2.37,1.19C240.02,66.73,239.3,68.08,239.23,68.64z"/>
	<g class="st2">
		<g>
			<path class="st14" d="M248.92,53.28c-0.55,2.34-1.07,4.85-0.2,7.18c0.72,1.95,2.26,3.57,4.22,4.29
				c3.99,1.46,8.35-1.57,11.22-4.09c5.69-4.99,8.54-12.28,13.73-17.69c3.43-3.57,7.78-6.12,12.47-7.65c2.28-0.75,1.31-4.37-1-3.62
				c-3.82,1.25-7.43,3.06-10.62,5.51c-2.9,2.23-5.26,4.93-7.38,7.89c-3.85,5.38-7,11.73-12.96,15.11c-1.65,0.94-3.69,1.83-5.29,0.32
				c-1.73-1.63-1.06-4.23-0.58-6.25C253.1,51.93,249.48,50.93,248.92,53.28L248.92,53.28z"/>
		</g>
	</g>
	<g class="st2">
		<g>
			<path class="st14" d="M242.51,55.87c0.67,1.72,1.74,3.98,0.86,5.81c-0.86,1.78-2.68,1.67-4.31,1.1
				c-3.29-1.13-6.14-3.44-8.57-5.87c-5.1-5.11-9.01-11.24-14.96-15.49c-3.78-2.7-8.12-4.6-12.6-5.75c-2.34-0.6-3.34,3.02-1,3.62
				c4.34,1.11,8.43,2.96,12.04,5.61c3.24,2.38,5.88,5.48,8.45,8.54c2.48,2.95,4.95,5.97,7.94,8.43c2.99,2.48,7.29,5.45,11.37,5.02
				c2.37-0.25,4.3-1.82,5.19-4.01c1.08-2.66,0.19-5.47-0.79-8.01c-0.36-0.94-1.26-1.6-2.31-1.31
				C242.92,53.82,242.14,54.92,242.51,55.87L242.51,55.87z"/>
		</g>
	</g>
	<path class="st20" d="M268.18,77.62L268.18,77.62c-3.74,0-6.8-3.06-6.8-6.8v-6.13c0-3.74,3.06-6.8,6.8-6.8l0,0
		c3.74,0,6.8,3.06,6.8,6.8v6.13C274.98,74.56,271.92,77.62,268.18,77.62z"/>
	<path class="st20" d="M227.3,79.34L227.3,79.34c-3.74,0-6.8-3.06-6.8-6.8v-6.13c0-3.74,3.06-6.8,6.8-6.8h0c3.74,0,6.8,3.06,6.8,6.8
		v6.13C234.1,76.28,231.04,79.34,227.3,79.34z"/>
	<g class="st2">
		<g>
			<path class="st14" d="M253.75,48.9c0.14,2.26,0.96,5.38,3.19,6.48c2.65,1.31,4.21-1.65,5.33-3.55c2.24-3.79,3.87-8.09,7.27-11.05
				c1.22-1.06-0.56-2.82-1.77-1.77c-2.92,2.54-4.65,6.04-6.45,9.39c-0.85,1.58-1.7,3.34-2.9,4.69c-0.03,0.04-0.27,0.15-0.13,0.13
				c-0.17,0.01-0.36-0.15-0.47-0.25c-0.37-0.31-0.6-0.73-0.82-1.16c-0.45-0.91-0.69-1.91-0.75-2.92
				C256.15,47.3,253.65,47.29,253.75,48.9L253.75,48.9z"/>
		</g>
	</g>
	<g class="st2">
		<g>
			<path class="st14" d="M238.79,50.89c-0.06,1.01-0.3,2.02-0.75,2.92c-0.19,0.39-0.4,0.79-0.73,1.08c-0.13,0.12-0.28,0.27-0.46,0.3
				c-0.13,0.02-0.02,0.05-0.18-0.06c-0.32-0.23-0.57-0.72-0.78-1.05c-0.25-0.37-0.49-0.75-0.72-1.14c-0.51-0.84-0.98-1.69-1.44-2.55
				c-1.8-3.35-3.53-6.85-6.45-9.39c-1.21-1.05-2.98,0.71-1.77,1.77c3.4,2.96,5.03,7.26,7.27,11.05c1.12,1.9,2.68,4.86,5.33,3.55
				c2.23-1.1,3.05-4.22,3.19-6.48C241.39,49.28,238.89,49.29,238.79,50.89L238.79,50.89z"/>
		</g>
	</g>
	<g class="st2">
		<g>
			<path class="st15" d="M231.51,69.14c3.22,0,3.22-5,0-5C228.29,64.14,228.29,69.14,231.51,69.14L231.51,69.14z"/>
		</g>
	</g>
	<g class="st2">
		<g>
			<path class="st15" d="M272.11,66.33c3.22,0,3.22-5,0-5C268.89,61.33,268.88,66.33,272.11,66.33L272.11,66.33z"/>
		</g>
	</g>
	<g class="st2">
		<g>
			<path class="st15" d="M275.17,69.1c1.61,0,1.61-2.5,0-2.5C273.56,66.6,273.56,69.1,275.17,69.1L275.17,69.1z"/>
		</g>
	</g>
	<g class="st2">
		<g>
			<path class="st15" d="M233.62,72.74c1.61,0,1.61-2.5,0-2.5C232.01,70.24,232.01,72.74,233.62,72.74L233.62,72.74z"/>
		</g>
	</g>
</g>
<g id="Layer_3">
	<g class="st0">
		<path class="st21" d="M188.87,267.96H19.6c-6.6,0-12-5.4-12-12v-39.32c0-6.6,5.4-12,12-12h169.28c6.6,0,12,5.4,12,12v39.32
			C200.87,262.56,195.47,267.96,188.87,267.96z"/>
		<path class="st22" d="M198.7,217.28c-32.35,0.69-65.26,1.09-98.71,1.15c-30.53,0.06-60.61-0.16-90.22-0.64
			c-0.7-3.84,0.38-7.51,2.99-9.48c1.19-0.9,2.47-1.27,3.48-1.43h175.68c0.78,0.14,2.11,0.5,3.48,1.43c1.69,1.16,2.55,2.61,2.93,3.35
			C198.44,213.53,198.57,215.4,198.7,217.28z"/>
	</g>
	<g class="st0">
		
			<linearGradient id="SVGID_00000142892505776036904440000002585760562667314592_" gradientUnits="userSpaceOnUse" x1="343.3488" y1="203.3035" x2="343.3488" y2="347.617">
			<stop  offset="4.516346e-03" style="stop-color:#87CFE3"/>
			<stop  offset="0.1845" style="stop-color:#9BD6E8;stop-opacity:0.9093"/>
			<stop  offset="0.5413" style="stop-color:#C9E7F2;stop-opacity:0.7294"/>
			<stop  offset="0.9963" style="stop-color:#FFFFFF;stop-opacity:0.5"/>
		</linearGradient>
		<path style="display:inline;fill:url(#SVGID_00000142892505776036904440000002585760562667314592_);" d="M413.81,267.96
			c-0.65-0.01-1.06,0.85-1.64,2c-1.93,3.78-4.03,7.47-6.02,11.22c-2.82,5.32-3.42,4.19-4.21,6.89c-1.09,3.74,0.14,5.59,0.19,11.3
			c0.03,3-0.3,3.62-0.96,9.19c-0.49,4.14-1.31,11.11-1.34,19.15c-0.02,4.33,0.19,8.56-0.96,14.74c-0.39,2.08-0.98,5.18-1.72,5.17
			c-0.79-0.01-1.19-3.45-2.68-12.83c-1.96-12.38-2.27-12.77-2.3-16.09c-0.05-5.36,0.73-6.37,0.19-10.72
			c-0.67-5.34-2.5-9.07-3.26-10.72c-6.7-14.68-5.64-35.16-13.79-48.06c-0.68-1.07-2.06-3.11-4.4-3.7
			c-3.62-0.91-7.94,2.03-10.34,5.23c-4.66,6.23,0.29,10.34-4.02,19.34c-2.41,5.03-5.35,6.66-5.36,11.49c0,2.22,0.62,3.4,0.38,6.7
			c-0.06,0.84-0.25,2.86-1.72,7.47c-2.31,7.21-3.37,6.99-4.02,10.91c-0.74,4.41,0.09,7.75-0.96,8.04c-0.66,0.18-1.52-0.99-1.91-1.53
			c-2.28-3.16-2.36-6.67-2.49-11.87c-0.22-8.73-0.28-9.61-0.38-10.72c-0.35-3.76-0.57-6.1-1.53-9.19c-1.08-3.48-1.89-4.02-3.06-7.85
			c-1.3-4.24-0.52-4.3-1.53-7.47c-1.71-5.36-5.12-8.95-7.94-11.92c-3.86-4.07-4.5-4.52-5.15-4.54c-2.92-0.09-6.08,3.89-8.17,6.51
			c-1.73,2.17-2.33,3.48-3.45,3.45c-1.75-0.06-1.82-4.16-4.02-4.79c-2.12-0.61-4.65,2.33-4.79,2.49c-3.69,4.36-0.29,9-2.11,20.68
			c-0.33,2.12-0.63,3.17-1.32,7.58c-0.66,4.2-0.98,6.3-1.17,8.88c-0.49,6.86,0.45,10.1-0.38,10.34c-0.91,0.26-3.2-3.27-4.02-7.28
			c-0.77-3.79,0.36-5.15,0.57-9.38c0.41-8.15-3.53-8.13-2.87-15.32c0.58-6.35,1.67-7.78,0-11.3c-1.45-3.05-3.2-2.7-5.94-6.7
			c-3.22-4.71-2.99-8.38-4.47-8.49c-1.71-0.12-3.42,5.26-3.96,6.96c-1.62,5.11-0.85,6.77-2.29,11.65c-1.35,4.59-2.35,4.2-3.46,8.07
			c-1.37,4.78-0.55,7.84-0.19,13.6c0.42,6.79,0.25,10.69-0.57,15.89c-0.8,5.06-1.81,7.19-1.4,11.74c0.22,2.42,0.64,3.38,0.51,6
			c-0.11,2.26-0.5,3-1.4,8.04c-0.66,3.68-0.68,4.59-0.89,4.6c-0.62,0-1.38-7.77-1.4-15.45c0-1.32,0.02-1.02,0.26-9.32
			c0.31-10.69,0.29-12.11,0-14.17c-0.73-5.13-1.9-5.1-3.32-10.79c-2.18-8.74,0.35-9.75-1.34-19.34c-1.32-7.45-4.2-14.51-4.79-15.96
			c-4.4-10.97-3.44-10.38-5.11-14.04c-1.36-2.99-2.3-4.74-2.55-7.66c-0.33-3.79,1.12-4.33,1.79-9.7c0.77-6.15-0.82-7.95,0.77-10.21
			c1.06-1.52,3.45-3.09,9.45-2.84h169.02c5.33,0.33,7.48,2.08,8.48,3.52c1.6,2.32,0.44,4.16,1.48,10.29c0.8,4.7,1.72,5.03,2.04,8.14
			c0.57,5.55-2.81,12.03-2.81,12.03c-3.96,7.43-1.04,9.38-7.53,30.45c-1.95,6.34-3.21,9.39-2.87,14.17
			c0.14,2.02,0.57,4.37,0.19,8.04c-0.32,3.15-0.98,4.76-1.53,7.09c-1.1,4.66-0.67,7.57-0.57,12.64c0.19,9.82-0.99,21.02-2.11,21.06
			c-0.95,0.04-2.07-7.97-2.49-11.87c-0.93-8.58,0.04-10.92-1.15-19.53c-0.69-4.99-1.09-4.73-1.29-8.09
			c-0.4-6.63,1.07-8.85,0.33-13.74C417.42,273.52,415.36,267.99,413.81,267.96z"/>
		<path class="st24" d="M434.87,215.88c-31.44,0.69-63.42,1.09-95.93,1.15c-29.67,0.06-58.9-0.16-87.68-0.64
			c-0.68-3.84,0.37-7.51,2.91-9.48c1.15-0.9,2.4-1.27,3.38-1.43h170.73c0.76,0.14,2.05,0.5,3.38,1.43c1.64,1.16,2.48,2.61,2.84,3.35
			C434.62,212.13,434.75,214,434.87,215.88z"/>
	</g>
	<g>
		
			<linearGradient id="SVGID_00000111155055019217446490000000264544501285346957_" gradientUnits="userSpaceOnUse" x1="563.7281" y1="204.6223" x2="563.7281" y2="317.238">
			<stop  offset="4.516346e-03" style="stop-color:#87CFE3"/>
			<stop  offset="0.1845" style="stop-color:#9BD6E8;stop-opacity:0.9093"/>
			<stop  offset="0.5413" style="stop-color:#C9E7F2;stop-opacity:0.7294"/>
			<stop  offset="0.9963" style="stop-color:#FFFFFF;stop-opacity:0.5"/>
		</linearGradient>
		<path style="fill:url(#SVGID_00000111155055019217446490000000264544501285346957_);" d="M620.62,279.19
			c-0.08,0.06-0.34,0.28-0.65,1.21c-0.61,1.83,0.38,3.77-0.88,11.3c-0.74,4.43-1.41,8.43-3.06,8.68c-1.63,0.25-3.76-3.22-4.6-6.13
			c-0.76-2.64-0.17-3.85-0.51-6.38c-0.54-4.04-2.79-6.5-4.34-8.68c-6.57-9.25-3.08-17.14-10.88-28.68c-1.29-1.91-2.56-3.43-4.4-3.7
			c-3.75-0.56-5.39,4.67-10.34,5.23c-3.83,0.44-4.43-2.51-9.36-2.98c-3.98-0.37-9.74,0.97-12.26,4.85
			c-3.26,5.03,0.85,11.4-2.3,13.53c-1.46,0.99-3.72,0.56-5.11-0.26c-1.88-1.1-2.45-2.68-5.54-11.75c-1.91-5.62-1.99-5.79-2.12-6.63
			c-0.77-4.9,0.57-7.07-1.02-8.68c-1.61-1.63-5.12-1.58-6.89,0c-0.83,0.74-1.1,1.65-1.53,6.38c-0.58,6.4-0.41,8.3-1.75,10.89
			c-0.34,0.67-1.86,3.5-3.45,3.45c-1.75-0.06-1.82-4.16-4.02-4.79c-1.7-0.48-3.74,1.12-4.79,2.49c-1.69,2.2-1.22,4.37-1.57,8.38
			c-0.42,4.8-1.34,4.48-2.04,9.45c-0.85,5.95,0.44,6.62,0,14.04c-0.28,4.8-1.21,11.22-2.3,11.23c-0.78,0.01-1.45-3.23-1.79-4.85
			c-0.27-1.31-0.38-2.34-0.73-7.43c-0.29-4.38-0.26-4.41-0.4-4.97c-0.92-3.65-2.96-5.03-2.47-10.35c0.43-4.71,1.14-6.71,0.8-8.86
			c-0.08-0.52-0.34-1.16-0.8-2.44c-0.69-1.9-1.91-5.25-3.8-8.34c-2.09-3.41-4.38-7.15-6.6-6.85c-1.65,0.22-2.92,3.37-5.4,9.66
			c-1.94,4.91-2.58,7.51-4.09,7.66c-1.14,0.12-2.08-1.24-3.06-2.55c-6.53-8.7-8.78-7.19-11.71-13.23c-1.3-2.68-2.74-7.12-3.35-9.02
			c-0.71-2.23-0.81-2.94-1.76-5.02c-1.36-2.99-2.3-4.74-2.55-7.66c-0.33-3.79,1.12-4.33,1.79-9.7c0.77-6.15-0.82-7.95,0.77-10.21
			c1.06-1.52,3.45-3.09,9.45-2.84h169.02c5.33,0.33,7.48,2.08,8.48,3.52c1.6,2.32,0.44,4.16,1.48,10.29c0.8,4.7,1.72,5.03,2.04,8.14
			c0.57,5.55-2.81,12.03-2.81,12.03c-3.96,7.43-1.04,9.38-7.53,30.45c-1.95,6.34-3.21,9.39-2.87,14.17
			c0.14,2.02,0.57,4.37,0.19,8.04c-0.32,3.15-0.98,4.76-1.53,7.09c-1.23,5.24,0.34,6.67-0.57,12.64c-0.32,2.1-0.93,6.07-2.27,6.21
			c-1.06,0.11-2.13-2.19-2.3-2.55c-0.92-2.04-0.29-3.04-0.77-4.85c-0.74-2.78-2.89-2.87-4.34-5.36c-1.63-2.79,0.07-4.43-0.26-8.94
			c-0.58-8.11-6.81-13.12-7.66-13.79C625.72,280.35,622.07,278.08,620.62,279.19z"/>
		<path class="st26" d="M655.25,217.19c-31.44,0.69-63.42,1.09-95.93,1.15c-29.67,0.06-58.9-0.16-87.68-0.64
			c-0.68-3.84,0.37-7.51,2.91-9.48c1.15-0.9,2.4-1.27,3.38-1.43h170.73c0.76,0.14,2.05,0.5,3.38,1.43c1.64,1.16,2.48,2.61,2.84,3.35
			C655,213.45,655.13,215.32,655.25,217.19z"/>
		
			<linearGradient id="SVGID_00000072239474954952654440000015759653037918109582_" gradientUnits="userSpaceOnUse" x1="482.4893" y1="289.1489" x2="482.4893" y2="289.1489">
			<stop  offset="4.516346e-03" style="stop-color:#87CFE3"/>
			<stop  offset="0.1845" style="stop-color:#9BD6E8;stop-opacity:0.9093"/>
			<stop  offset="0.5413" style="stop-color:#C9E7F2;stop-opacity:0.7294"/>
			<stop  offset="0.9963" style="stop-color:#FFFFFF;stop-opacity:0.5"/>
		</linearGradient>
		<path style="fill:url(#SVGID_00000072239474954952654440000015759653037918109582_);" d="M482.49,289.15"/>
	</g>
	<g class="st0">
		<path class="st28" d="M194.74,507.57H25.47c-6.6,0-12-5.4-12-12v-39.32c0-6.6,5.4-12,12-12h169.28c6.6,0,12,5.4,12,12v39.32
			C206.74,502.17,201.34,507.57,194.74,507.57z"/>
		<path class="st29" d="M204.57,456.89c-32.35,0.69-65.26,1.09-98.71,1.15c-30.53,0.06-60.61-0.16-90.22-0.64
			c-0.7-3.84,0.38-7.51,2.99-9.48c1.19-0.9,2.47-1.27,3.48-1.43h175.68c0.78,0.14,2.11,0.5,3.48,1.43c1.69,1.16,2.55,2.61,2.93,3.35
			C204.32,453.15,204.45,455.02,204.57,456.89z"/>
		<path class="st30" d="M41.74,452.74c-2.05,0.92-5.67,2.23-10.34,2.3c-5.09,0.07-9.01-1.36-11.11-2.3
			c1.02-5.54,2.53-13.9,4.21-24.13c3.81-23.14,4.72-32.76,6.32-32.74c1.74,0.01,2.29,11.41,6.13,33.13
			C38.74,439.08,40.51,447.3,41.74,452.74z"/>
		<path class="st30" d="M68.65,452.14c-2.05,0.92-5.67,2.23-10.34,2.3c-5.09,0.07-9.01-1.36-11.11-2.3
			c1.02-5.54,2.53-13.9,4.21-24.13c3.81-23.14,4.72-32.76,6.32-32.74c1.74,0.01,2.29,11.41,6.13,33.13
			C65.64,438.48,67.41,446.7,68.65,452.14z"/>
		<path class="st30" d="M94.69,451.95c-2.05,0.92-5.67,2.23-10.34,2.3c-5.09,0.07-9.01-1.36-11.11-2.3
			c1.02-5.54,2.53-13.9,4.21-24.13c3.81-23.14,4.72-32.76,6.32-32.74c1.74,0.01,2.29,11.41,6.13,33.13
			C91.69,438.29,93.46,446.5,94.69,451.95z"/>
		<path class="st30" d="M120.73,452.14c-2.05,0.92-5.67,2.23-10.34,2.3c-5.09,0.07-9.01-1.36-11.11-2.3
			c1.02-5.54,2.53-13.9,4.21-24.13c3.81-23.14,4.72-32.76,6.32-32.74c1.74,0.01,2.29,11.41,6.13,33.13
			C117.73,438.48,119.5,446.7,120.73,452.14z"/>
		<path class="st30" d="M146.97,452.52c-2.05,0.92-5.67,2.23-10.34,2.3c-5.09,0.07-9.01-1.36-11.11-2.3
			c1.02-5.54,2.53-13.9,4.21-24.13c3.81-23.14,4.72-32.76,6.32-32.74c1.74,0.01,2.29,11.41,6.13,33.13
			C143.96,438.86,145.73,447.08,146.97,452.52z"/>
		<path class="st30" d="M172.63,452.33c-2.05,0.92-5.67,2.23-10.34,2.3c-5.09,0.07-9.01-1.36-11.11-2.3
			c1.02-5.54,2.53-13.9,4.21-24.13c3.81-23.14,4.72-32.76,6.32-32.74c1.74,0.01,2.29,11.41,6.13,33.13
			C169.62,438.67,171.39,446.89,172.63,452.33z"/>
		<path class="st30" d="M200.39,451.76c-2.05,0.92-5.67,2.23-10.34,2.3c-5.09,0.07-9.01-1.36-11.11-2.3
			c1.02-5.54,2.53-13.9,4.21-24.13c3.81-23.14,4.72-32.76,6.32-32.74c1.74,0.01,2.29,11.41,6.13,33.13
			C197.39,438.09,199.16,446.31,200.39,451.76z"/>
	</g>
	
		<radialGradient id="SVGID_00000127034209049235000880000013160993862359139237_" cx="338.8346" cy="452.3883" r="42.3263" gradientUnits="userSpaceOnUse">
		<stop  offset="2.237672e-07" style="stop-color:#FAE77F"/>
		<stop  offset="0.3875" style="stop-color:#FAE57D"/>
		<stop  offset="0.6258" style="stop-color:#FAE077"/>
		<stop  offset="0.8233" style="stop-color:#F9D66C"/>
		<stop  offset="0.9984" style="stop-color:#F7C85E"/>
		<stop  offset="1" style="stop-color:#F7C75E"/>
	</radialGradient>
	<polygon style="display:none;fill:url(#SVGID_00000127034209049235000880000013160993862359139237_);" points="377.88,481.22 
		348.4,474.79 326.23,495.25 323.42,465.43 297.05,450.94 324.79,438.94 330.66,409.52 350.62,431.93 380.62,428.23 365.21,454.08 	
		"/>
</g>
</svg>
