<?xml version="1.0" encoding="utf-8"?>
<!-- Generator: Adobe Illustrator 26.0.1, SVG Export Plug-In . SVG Version: 6.00 Build 0)  -->
<svg version="1.1" xmlns="http://www.w3.org/2000/svg" xmlns:xlink="http://www.w3.org/1999/xlink" x="0px" y="0px"
	 viewBox="0 0 595.28 841.89" style="enable-background:new 0 0 595.28 841.89;" xml:space="preserve">
<style type="text/css">
	.st0{display:none;}
	.st1{display:inline;fill:url(#SVGID_1_);}
	.st2{display:inline;fill:url(#SVGID_00000147198544715449369000000007386452697707067064_);}
	.st3{display:inline;fill:url(#SVGID_00000068645844898347253210000007965329707842973094_);}
	.st4{fill:url(#SVGID_00000155837709023103320820000008579702760134350745_);}
</style>
<g id="Layer_1" class="st0">
	
		<linearGradient id="SVGID_1_" gradientUnits="userSpaceOnUse" x1="299.1073" y1="608.4667" x2="299.1073" y2="357.3001" gradientTransform="matrix(-1 0 0 1 602.8104 0)">
		<stop  offset="4.475343e-07" style="stop-color:#608AC7"/>
		<stop  offset="1" style="stop-color:#5556A2"/>
	</linearGradient>
	<path class="st1" d="M13.57,608.47h570.38c6.6,0,12-3.1,12-6.89V444.34c-0.89-1.11-1.2-2-0.95-2.67c0.65-1.73,5.05-2.05,13.2-0.95
		c0.12,0.02-14.39-2.41-24.26-3.27c-32.28-2.8-48.42-4.2-107.49,14.51c-98.73,31.26-213.69-130.05-315.09-87.45
		c-34.55,14.51-125.22,76.93-147.8,72.94c0,0-12.75-2.04-14.3,0.44c-0.57,0.91,2.56,2.18,2.62,4.87c0.01,0.7-0.19,1.26-0.32,1.57
		v157.24C1.57,605.37,6.97,608.47,13.57,608.47z"/>
	
		<linearGradient id="SVGID_00000139972943848558763940000010945567129727983759_" gradientUnits="userSpaceOnUse" x1="292.9215" y1="739.4" x2="292.9215" y2="488.2333">
		<stop  offset="4.475343e-07" style="stop-color:#608AC7"/>
		<stop  offset="1" style="stop-color:#5556A2"/>
	</linearGradient>
	<path style="display:inline;fill:url(#SVGID_00000139972943848558763940000010945567129727983759_);" d="M583.06,739.4H12.67
		c-6.6,0-12-3.1-12-6.89V575.28c0.89-1.11,1.2-2,0.95-2.67c-0.65-1.73-5.05-2.05-13.2-0.95c-0.12,0.02,14.39-2.41,24.26-3.27
		c32.28-2.8,48.42-4.2,107.49,14.51c98.73,31.26,213.69-130.05,315.09-87.45c34.55,14.51,125.22,76.93,147.8,72.94
		c0,0,12.75-2.04,14.3,0.44c0.57,0.91-2.56,2.18-2.62,4.87c-0.01,0.7,0.19,1.26,0.32,1.57v157.24
		C595.06,736.3,589.66,739.4,583.06,739.4z"/>
	
		<linearGradient id="SVGID_00000036242703776688147440000002461803639970312127_" gradientUnits="userSpaceOnUse" x1="293.2043" y1="843.1915" x2="293.2043" y2="671.327">
		<stop  offset="4.475343e-07" style="stop-color:#608AC7"/>
		<stop  offset="1" style="stop-color:#5556A2"/>
	</linearGradient>
	<path style="display:inline;fill:url(#SVGID_00000036242703776688147440000002461803639970312127_);" d="M583.34,843.19H12.96
		c-6.6,0-12-3.1-12-6.89V679.07c0.89-1.11,1.2-2,0.95-2.67c-0.65-1.73-5.05-2.05-13.2-0.95c7.65-1.42,15.74-2.55,24.26-3.27
		c43.13-3.62,80.21,4.86,107.49,14.51c94.25,29.49,86.26,28.5,98.04,31.21c85.96,19.81,216.08,4.8,274.21-22.86
		c0,0,33.02-15.71,90.64-22.86c7.19-0.89,13.58-0.71,14.3,0.44c0.57,0.91-2.56,2.18-2.62,4.87c-0.01,0.7,0.19,1.26,0.32,1.57V836.3
		C595.34,840.09,589.94,843.19,583.34,843.19z"/>
</g>
<g id="Layer_2">
	
		<linearGradient id="SVGID_00000093178018856012709070000013266701014555998348_" gradientUnits="userSpaceOnUse" x1="292.7872" y1="881.4894" x2="292.7872" y2="-26.9362">
		<stop  offset="0" style="stop-color:#0E1121"/>
		<stop  offset="1" style="stop-color:#010202"/>
	</linearGradient>
	
		<rect x="-61.85" y="-26.94" style="fill:url(#SVGID_00000093178018856012709070000013266701014555998348_);" width="709.28" height="908.43"/>
</g>
</svg>
